<?xml version="1.0" encoding="utf-8"?>
<!-- Generator: Adobe Illustrator 18.0.0, SVG Export Plug-In . SVG Version: 6.00 Build 0)  -->
<!DOCTYPE svg PUBLIC "-//W3C//DTD SVG 1.1//EN" "http://www.w3.org/Graphics/SVG/1.1/DTD/svg11.dtd">
<svg version="1.1" id="Layer_1" xmlns="http://www.w3.org/2000/svg" xmlns:xlink="http://www.w3.org/1999/xlink" x="0px" y="0px"
	 viewBox="86.2 143.1 613.8 490.2" enable-background="new 86.2 143.1 613.8 490.2" xml:space="preserve">
<path fill="#33363F" d="M133.3,333.3l-23.6,23.6l-23.6-23.6l23.6-23.6L133.3,333.3z M700,600c0,18.4-14.9,33.3-33.3,33.3
	s-33.3-14.9-33.3-33.3H700z M276.4,523.6L109.8,356.9l47.1-47.1l166.7,166.7L276.4,523.6z M109.8,309.8l166.7-166.7l47.1,47.1
	L156.9,356.9L109.8,309.8z M133.3,300h333.3v66.7H133.3V300z M700,533.3V600h-66.7v-66.7H700z M466.7,300
	C595.5,300,700,404.5,700,533.3h-66.7c0-92-74.6-166.7-166.7-166.7V300z"/>
</svg>
