<?xml version="1.0" encoding="utf-8"?>
<!-- Generator: Adobe Illustrator 18.0.0, SVG Export Plug-In . SVG Version: 6.00 Build 0)  -->
<!DOCTYPE svg PUBLIC "-//W3C//DTD SVG 1.1//EN" "http://www.w3.org/Graphics/SVG/1.1/DTD/svg11.dtd">
<svg version="1.1" id="outputsvg" xmlns="http://www.w3.org/2000/svg" xmlns:xlink="http://www.w3.org/1999/xlink" x="0px" y="0px"
	 viewBox="158.6 141.9 1792.4 1768.7" enable-background="new 158.6 141.9 1792.4 1768.7" xml:space="preserve">
<g id="lui3D885bGHay29yeyyYJI">
	<g>
		<path id="pZ3Ei7iNU" fill="#7D1516" d="M925.9,1906.1c-47.8-4.5-57.9-5.7-126.5-17c-49.9-8-42.8-6.4-124.4-26.7
			c-80.9-19.9-92.2-23.9-97.2-33.8c-0.9-2.1-2.4-224.2-3.1-493.6l-1.2-489.5l-21,30.7c-11.8,17-24.8,36.2-29.3,42.6
			c-12.3,18-26.3,31.7-39.5,38.5c-10.2,5.2-14.9,6.1-33.1,6.4c-26.7,0-31.9-2.4-74.5-33.1c-81.4-59.1-116.8-84.7-143.1-102.6
			c-66.9-45.6-76.6-58.2-74-95.3c1.4-19.4,3.8-23.4,43.8-77.8c16.8-22.7,46.1-62.9,65.3-89.6C390.2,394.9,427.8,343.6,437,335.6
			c4.7-4.3,18.2-12.3,30-17.7c26.7-12.5,308.9-137.9,359-159.6l37.6-16.3H1055h191.3l70.2,31c38.8,17.3,97.7,43,130.8,57.7
			c72.8,32.2,109.3,48.2,140.7,61.5c82.3,34.8,82.3,34.8,110.2,74.7c41.4,59.4,173.1,241.9,214,296.6c35.7,48,36.9,50.1,38.3,71.2
			c0.9,15.4,0.5,18.9-5.4,30.5c-7.1,14.9-14.2,20.8-95.8,79.2c-26.3,18.9-70.7,51.1-99.1,71.7c-28.1,20.8-55.3,39.7-60.5,42.6
			c-13.2,6.9-40.9,8.3-59.1,2.8c-10.9-3.1-16.3-6.6-27-17.3c-7.6-7.3-17.7-20.3-22.7-28.9c-5.2-8.5-17.3-27.7-27.2-42.6l-17.7-27.2
			l-1.2,490l-1.2,489.8l-5.4,5.9c-7.6,8-27.4,14.4-110.4,36.2c-70,18.2-151.8,31.7-242.2,40
			C1120.7,1912.3,985.9,1911.5,925.9,1906.1z M1138.7,1865.9c52.5-3.5,128.7-12.3,163.2-18.9c38.3-7.3,53.7-10.6,90.1-19.2
			c34.5-8.3,40.4-10.4,39.5-13.7c-0.9-3.3,3.3-5.4,22.2-10.9c34.3-9.9,31.5-6.4,31.5-37.8c0-19.4,0.7-27,3.1-27.9
			c2.1-0.7,2.8-101,3.3-490.2c0.2-509.2,0.9-565.4,6.6-604.9c6.6-45.2,20.8-93.6,41.6-143.3c6.4-14.9,11.6-27.9,11.6-28.9
			c0-1.2-1.7-1.9-3.5-1.9c-5.4,0-4.5-2.8,9.7-27.2c11.4-19.4,14.2-22.7,18.4-21.5c4,0.9,6.6-1.4,13.2-11.1
			c4.5-6.6,14.9-21,23.2-31.9c8-11.1,14.4-20.3,14-21c-1.2-0.9-93.4-41.1-170.7-74c-29.8-12.8-59.4-25.3-65.5-27.9
			c-12.3-5.4-13.7-5-13.7,4.5c0,6.9-7.1,37.8-12.8,56.8c-3.1,9.9-3.1,11.4,0.5,14.9s3.1,5.7-8.5,28.6c-10.9,22-13,24.8-17.7,23.9
			c-4.3-0.9-7.6,2.1-20.6,20.1c-29.3,40.7-66.9,71.9-114.7,95.5c-50.4,24.8-91,34.3-146.6,34.3c-82.3,0-152.5-26.3-216.6-81.1
			c-17.7-15.1-49.4-51.1-57.9-65.5c-3.5-5.7-5.7-7.1-9.9-6.4c-5,0.9-6.9-1.7-18.4-24.8c-7.1-14.4-12.8-26.5-12.8-27s1.7-0.9,3.8-0.9
			c4.5,0,4.3-2.4-4.7-37.1c-3.3-13.2-6.1-27.4-6.1-31.2c0-3.8-0.9-7.6-2.1-8.3c-1.9-1.2-54.4,20.8-103.8,43.8
			c-8.3,3.8-15.4,6.9-15.8,6.9c-0.5,0-8.5,3.5-18.2,8c-9.5,4.5-36.9,16.8-61,27.4s-44.7,20.1-45.9,21.3c-0.9,0.9,7.3,16.1,18.9,33.8
			c17,26,22,31.7,25.8,31c3.8-0.9,6.4,1.9,12.8,14.4c4.3,8.5,10.9,20.1,14.7,25.5c5.7,8.5,6.1,9.9,2.8,12.3c-4.5,3.3-4.3,4,8.8,35.5
			c9,22,23.4,64.8,28.4,84c10.2,39.7,14.2,63.4,18,105.2c2.8,31.7,3.3,113.5,3.1,495.4c-0.2,591.5-0.2,577.7,3.8,568.8
			c3.1-6.6,3.3-5.9,3.5,13.7c0,14.9,0.7,20.6,3.1,20.6c1.4,0,12.3,3.1,23.9,6.9c15.4,4.7,21.8,8,22.9,11.4
			c1.9,5.2,6.1,6.4,74.3,20.6C879.7,1863.1,1018.3,1873.7,1138.7,1865.9z M466.8,905c11.6-11.8,19.9-24.4,17.7-26.3
			c-0.5-0.5-25.3-18.2-55.3-39.5c-71.7-50.6-177.8-126.8-187.1-133.9l-7.6-5.7l-9.5,11.1c-5.2,6.1-11.8,15.1-14.7,20.1l-5,9l9,8.5
			c5,4.7,29.8,23.4,55.1,41.6c25.3,18.2,71.4,51.6,102.4,73.8c67.6,48.7,75,53.7,79.5,53.7C453.4,917.6,460.4,911.9,466.8,905z
			 M1703.7,885.9c167.2-120.1,197.7-142.8,197.7-148.3c0-1.4-10.9-17.7-21.8-32.9l-4.3-5.7l-5.2,4.7c-3.1,2.6-23.4,17.5-45.6,33.3
			c-22,15.6-61.7,43.8-88,62.4c-26.3,18.7-59.6,42.1-74,51.8c-14.7,9.7-30,20.6-34.5,23.9l-7.8,6.1l8,11.6
			c10.6,14.9,24.1,25.1,30.5,23.2C1661.6,915.2,1681.7,901.7,1703.7,885.9z M549.8,802.9l25.5-37.8l-1.4-40.2
			c-3.8-108.5-37.1-209.8-100.5-305.1c-9.7-14.2-18.9-27.4-20.3-29.1c-2.6-2.6-6.9,1.9-23.2,23.6c-10.9,14.7-25.3,34.1-31.7,43.3
			c-10.2,14.7-94.8,131.7-126.5,174.8c-6.4,9-11.6,17.7-11.1,19.9c0.9,4,84.2,65,208.8,152.5c22.2,15.4,42.8,30.7,46.1,33.8
			c3.1,3.1,6.4,4.7,7.3,3.8C523.8,841.4,535.9,823.7,549.8,802.9z M1607.4,827.2c11.6-8,61.3-43.5,110.7-78.8
			c49.4-35.2,99.8-70.7,111.9-79c11.8-8,21.8-15.1,21.8-15.8c0-0.7-18.4-26.5-40.9-57.2c-69.1-94.1-97.2-133.1-110.4-153
			c-19.2-28.9-38.1-53.2-40.7-53.2c-3.8,0-16.6,14.9-32.2,37.8c-59.1,85.8-88,179-91.8,295.6l-1.4,41.4l10.4,16.6
			c13.5,22,39.5,60.3,40.9,60.3C1586.4,841.9,1596.1,835.3,1607.4,827.2z M1097.3,481.3c59.8-10.4,112.3-38.3,157-83
			c27.9-28.1,47.3-59.1,60.1-95.5c8.5-24.6,16.6-65.5,13.2-68.3c-1.2-1.2-9.7-5.2-18.9-9.2l-16.8-7.1l-1.4,18.4
			c-5.7,74.5-57,149.2-125.8,183.8c-62.9,31.7-154,31.9-217.1,0.7c-73.1-36.4-123-106.9-130.8-184.9c-0.9-9-2.1-16.1-2.6-16.1
			c-0.5,0-8.3,3.8-17.3,8.3c-19.6,9.9-19.6,9.9-10.6,45.2c14.7,57.7,56,118.7,106.4,156.6c18.2,13.5,55.1,32.6,79.2,40.7
			C1010.8,483.9,1059.7,487.9,1097.3,481.3z M1094,384.3c39-9.9,80.4-37.8,103.8-69.8c7.1-9.7,24.8-40.9,24.8-43.8
			c0-0.7-76.1-1.2-169.1-1.2H884.5l3.5,9c9.9,23.6,40.9,60.3,65.3,76.6c22.5,15.4,53.4,27.9,79.5,32.6
			C1047.4,390.4,1076,388.8,1094,384.3z M1234.5,210.5c0-2.8-1.7-8-3.5-11.8l-3.8-7.1h-173.8H879.5l-3.5,8.3
			c-6.9,16.8-22.7,15.4,177.6,15.4C1234.5,215.2,1234.5,215.2,1234.5,210.5z"/>
	</g>
</g>
<g id="l2n8J5VvYz04oMaDtCTQTfv">
	<g>
		<path id="pW3rmxDMB" fill="#F37022" d="M431.1,918.3c-5.4-3.8-35.2-24.8-66.2-47.3c-31-22.2-77.1-55.6-102.4-73.8
			c-57-40.9-63.9-47.1-63.9-57.7c0-12.8,26.3-49,35.5-49c2.4,0,10.4,4.5,18,10.2c17,12.3,109.5,78.5,187.3,133.9
			c31.5,22.5,57.2,42.3,57.2,44.2c0,5.2-17.3,29.8-27.2,38.3C458.1,927,445.1,927.5,431.1,918.3z"/>
		<path id="pHoeAmPsP" fill="#F37022" d="M1638.2,918.5c-9.7-7.1-27.7-32.2-27.7-38.5c0-4.5,7.8-10.6,44.9-35.7
			c25.1-17,82.8-57.7,168.6-119.4c21.8-15.6,43-30.5,47.1-32.9l7.3-4.7l5.7,7.1c13,16.1,26.7,38.8,26.7,44
			c0,10.4-6.9,15.8-201,155.4c-35.7,25.8-42.1,29.6-51.8,30.3C1649,924.9,1645.7,924,1638.2,918.5z"/>
		<path id="pzXk8HlqL" fill="#F37022" d="M1002.7,487.2c-57.5-10.9-109.7-38.3-148.8-78c-45.4-46.6-78-112.3-80.9-164.4l-0.9-14.2
			l23.6-12.3c13-6.9,24.4-12.3,25.1-12.5c0.7,0,2.1,8.8,2.8,19.6c6.1,79,56.5,151.4,131,188.5c61.7,30.5,141.7,30.3,202.9-0.7
			c70-35,120.8-110.7,125.8-186.4l1.4-20.6l6.1,1.9c3.3,0.9,14.7,5.4,25.1,9.9l18.9,8.3l0.7,11.1c0.9,14.4-6.9,51.8-15.8,76.6
			c-32.2,88.2-117.3,157-215.4,174.3C1077.4,493.1,1031.1,492.6,1002.7,487.2z"/>
		<path id="plKFU3mY2" fill="#F37022" d="M553.1,472c-8.3-10.9-26.3-46.8-24.4-48.5c1.9-1.7,33.1-15.8,79-35.7
			c8.5-3.8,42.1-18.9,74.5-33.8c32.6-14.9,61-27.7,63.1-28.1c3.1-0.5,7.3,5.9,16.8,25.5l13,26l-6.4,2.6
			c-9.2,3.8-72.6,32.2-87.7,39.3c-7.1,3.3-35.9,16.3-63.9,28.9c-27.9,12.5-53,24.1-55.6,25.8C557.4,476.8,556.5,476.5,553.1,472z"/>
		<path id="pvQBys7CK" fill="#F37022" d="M1538.4,465.9c-11.8-5.4-82.3-34.3-123-50.6c-24.6-9.9-53.2-22-63.1-26.7L1334,380
			l13.2-26.5c10.9-22,14-26.3,17-24.6c2.1,1.2,22,9.7,44,18.9c22.2,9.2,50.4,21,62.7,26.3c12.3,5.2,34.8,14.7,49.7,20.8
			c39.5,16.3,59.6,26,58.6,27.9c-0.5,0.9-6.4,11.6-13.5,23.6C1552.6,469.2,1550,471.1,1538.4,465.9z"/>
		<path id="pk2J332bg" fill="#F37022" d="M865.6,211.7c0-5.9,1.7-14.4,3.3-18.9l3.5-8.3h180.9h180.9l3.5,6.6
			c1.9,3.8,4.3,12.3,5.2,18.9l1.7,12.3H1055H865.6V211.7z"/>
	</g>
</g>
<g id="lHy9jDiQLhYlpZn75s6pKL">
	<g>
		<path id="p12w8BY4CC" fill="#ED352F" d="M1025.7,394.9c-26-4.7-57-17.5-79.5-32.6c-14.7-9.9-39.5-35-50.4-50.8
			c-8.5-12.8-23.2-42.1-23.2-46.8c0-1.2,74.3-2.1,180.9-2.1c151.4,0,180.9,0.5,180.9,3.3c0,5-19.9,42.6-29.1,55.1
			c-23.9,32.6-64.6,60.1-104.5,70.5C1083.8,395.9,1041.5,397.8,1025.7,394.9z"/>
	</g>
</g>
<g id="l2ImglARE2yxfZD19quPExP">
	<g>
		<path id="pOdaO9Nno" fill="#C4C4C4" d="M666.9,1817.4c-5.9-1.7-18.9-5.7-28.9-8.8l-18.4-5.4v-15.6c0-10.6,1.7-19.9,5.4-29.6
			c3.1-7.6,8.5-24.6,12.3-37.6c3.5-13,7.3-24.8,8.5-26.3c1.2-1.4,1.4-3.3,0.7-4c-0.7-0.7-0.5-2.8,0.5-4.5c1.2-1.7,2.4-5.2,2.8-7.8
			c0.2-2.6,1.9-9,3.3-14.2c1.4-5.2,2.8-10.2,3.3-11.1c0.2-1.2,0.5-2.1,0.7-2.4c0.5-0.5,0.9-3.3,1.4-6.6c0.5-3.3,3.1-15.4,5.9-27.2
			c2.6-11.6,7.6-34.5,10.6-50.8s6.9-35.5,8.3-42.6c1.7-7.1,3.1-16.1,3.8-20.1c2.1-17.7,3.1-24.6,4.5-39c0.9-8.5,1.9-18.4,2.4-22.5
			c3.1-26,8.3-121.8,8.3-150.2c0-28.6-4.7-114.9-8.3-150.2c-2.4-25.1-4.3-40.2-8.5-68.6c-2.6-16.8-5.2-35-5.9-40.2l-1.2-9.5l3.8,6.4
			c5.2,9.2,18.4,57,25.8,92.9c3.5,17,6.9,32.4,7.8,34.3c0.7,1.9,1.7,7.3,2.1,11.8c0.2,4.5,2.4,18.4,4.3,30.7c4,23.6,4.3,26,8.3,79.2
			c5,64.8,5.7,107.8,2.8,166c-1.4,32.2-3.8,67.2-5.2,77.6c-2.1,17.7-4.7,48-5.4,63.9c-0.2,4-1.2,8.3-2.1,9.9
			c-0.9,1.7-2.1,10.4-2.4,19.6c-0.2,9-1.2,16.6-1.9,16.6c-0.7,0-2.6,9.2-4.3,20.8c-5.7,40.7-14.4,82.8-25.1,120.8
			c-6.1,21.3-10.4,40.7-9.9,43c0.7,2.6,0.9,4.5,0.9,4.3C677.8,1820.7,672.8,1819.1,666.9,1817.4z"/>
		<path id="p170X8FsSH" fill="#C4C4C4" d="M1432.2,1815.5c-0.5-1.7-1.9-7.6-3.5-13.5c-1.4-5.9-7.8-31-14.2-55.8
			c-18.7-72.4-34.5-168.9-39.5-241c-0.7-9-2.1-27.7-3.3-41.1c-3.1-32.4-3.1-167,0-194.9c1.2-12.1,2.8-28.1,3.5-35.9
			c0.7-7.8,1.9-20.1,2.4-27.2c1.2-12.5,4.3-31.5,7.3-46.1c2.1-10.2,3.1-15.6,4.5-24.8c1.9-13.2,12.3-54.9,15.6-62.7
			c1.7-3.8,2.6-8.5,2.4-9.9c-0.2-1.7,0.7-3.1,2.1-3.1c1.2,0,2.1-0.7,2.1-1.7c-0.2-1.2,0-2.4,0.2-3.1c0.2-0.7,0.7-3.1,1.2-5.2
			c1.4-8,9-26.7,12.1-30c2.6-2.8,2.8-1.9,1.9,5.9c-0.7,5-1.7,11.4-2.4,14c-2.8,12.1-7.8,49.4-6.9,50.4c0.7,0.7,0,2.6-1.4,4.3
			c-1.2,1.4-2.6,11.8-3.1,22.9c-0.5,11.1-1.4,21-2.1,22.2c-1.9,2.8-6.4,69.8-6.1,93.6c0,11.4-0.5,21.5-1.2,22.5
			c-1.7,2.8,3.3,144.5,5.7,162.5c1.2,9.2,2.8,27,3.5,40c0.5,12.8,2.1,24.6,3.5,26c1.2,1.7,1.7,3.5,0.9,4.5c-1.9,1.9,6.1,52,9,55.3
			c1.2,1.7,1.7,4,0.7,5.2c-1.9,3.3,13.5,69.3,24.1,102.6c4.5,14.7,13.7,40,20.1,56.8c11.4,28.4,16.6,35.7,19.2,26
			c0.7-2.4,0.9,11.8,0.7,31.2l-0.2,35.5l-13,4.3C1445.7,1815.3,1432.9,1818.4,1432.2,1815.5z"/>
	</g>
</g>
</svg>
