<?xml version="1.0" encoding="utf-8"?>
<!-- Generator: Adobe Illustrator 18.0.0, SVG Export Plug-In . SVG Version: 6.00 Build 0)  -->
<!DOCTYPE svg PUBLIC "-//W3C//DTD SVG 1.1//EN" "http://www.w3.org/Graphics/SVG/1.1/DTD/svg11.dtd">
<svg version="1.1" id="Layer_1" xmlns="http://www.w3.org/2000/svg" xmlns:xlink="http://www.w3.org/1999/xlink" x="0px" y="0px"
	 viewBox="0 0 365.1 222.1" enable-background="new 0 0 365.1 222.1" xml:space="preserve">
<g>
	<path d="M138.4,50.9L118.2,74l32.2,0.5l-5.3,26.4c-32.4,1.3-55.6-18.5-45.6-48.5c12.7-32.8,40.3-29,87.1-28.2l4.6-23.4
		C123-2.4,93.2,2.5,76.2,46.3c-1.2,3-1.9,6.2-2.2,9.5c-3.9,50.7,28.3,72,91,68.4l15.9-73.7L138.4,50.9z"/>
	<polygon points="201.7,0.3 192.8,41.1 217.6,41.5 221.8,23.5 271.9,24 291.5,0.4 	"/>
	<polygon points="174.7,124 199.9,124 210.6,74.2 266,74 270.8,50.6 190.8,50.6 	"/>
	<path d="M6.8,216.6c-4.5-3.5-6.8-8.2-6.8-14.2c0-0.6,0.1-1.6,0.2-3l0.3-2c0.1-0.3,0.2-0.6,0.5-0.9c0.2-0.2,0.5-0.4,0.9-0.4h14.2
		c0.4,0,0.6,0.1,0.8,0.4c0.2,0.2,0.3,0.5,0.2,0.9l-0.2,1.2c-0.3,2.3,0.6,4.3,2.7,5.9c2.1,1.7,5,2.5,8.8,2.5c3.2,0,5.6-0.7,7.2-2.2
		c1.6-1.5,2.4-3.1,2.4-4.9c0-1.7-0.7-2.9-2.2-3.9c-1.5-0.9-4.1-2.1-8-3.5l-2.4-0.8c-3.9-1.4-7.3-2.8-10.2-4.3
		c-2.9-1.5-5.3-3.6-7.4-6.2c-2.1-2.6-3.1-5.8-3.1-9.6c0-0.6,0.1-1.4,0.2-2.7c0.6-4.3,2.2-8,4.8-11.2c2.6-3.2,6-5.7,10.1-7.4
		c4.1-1.7,8.7-2.6,13.7-2.6c4.8,0,9.1,0.8,12.9,2.5c3.7,1.7,6.7,4,8.8,7.1c2.1,3.1,3.2,6.6,3.2,10.6c0,0.6-0.1,1.6-0.2,3l-0.2,1.4
		c0,0.3-0.1,0.6-0.4,0.9c-0.3,0.2-0.6,0.4-0.9,0.4H42.3c-0.4,0-0.6-0.1-0.9-0.4c-0.2-0.2-0.3-0.5-0.3-0.9l0.1-0.7
		c0.3-2.4-0.5-4.6-2.4-6.4c-1.9-1.9-4.5-2.8-8-2.8c-2.9,0-5.1,0.6-6.8,1.9c-1.7,1.3-2.5,3.1-2.5,5.3c0,1.2,0.5,2.3,1.4,3.2
		c0.9,0.9,2.3,1.7,4.1,2.5c1.8,0.8,4.6,1.9,8.4,3.3c4.3,1.5,7.6,2.8,9.9,3.9c2.3,1.1,4.6,2.9,6.6,5.3c2.1,2.4,3.1,5.6,3.1,9.5
		c0,0.6-0.1,1.4-0.2,2.7c-0.8,6.7-3.9,12-9.3,15.9c-5.4,3.9-12.1,5.8-20.2,5.8C17.5,221.8,11.3,220,6.8,216.6"/>
	<path d="M115.1,153.8c3.7,3.5,5.6,8.3,5.6,14.3c0,0.7-0.1,1.9-0.2,3.5c-0.6,4.5-2.1,8.4-4.5,11.9c-2.5,3.4-5.6,6.1-9.5,8
		c-3.9,1.9-8.2,2.8-13.1,2.8H81c-0.3,0-0.5,0.2-0.6,0.5l-3,24.9c-0.1,0.3-0.2,0.6-0.5,0.9c-0.2,0.2-0.5,0.4-0.9,0.4H61.5
		c-0.4,0-0.6-0.1-0.8-0.4c-0.2-0.2-0.3-0.5-0.2-0.9l8.7-69.9c0.1-0.3,0.2-0.6,0.5-0.9c0.2-0.2,0.5-0.4,0.9-0.4h29.4
		C106.3,148.5,111.3,150.3,115.1,153.8 M100.7,177.8c2-1.9,2.9-4.3,2.9-7.2c0-2.2-0.8-4-2.3-5.3c-1.5-1.3-3.5-2-6-2H84.9
		c-0.3,0-0.5,0.2-0.6,0.5l-2,16.3c-0.1,0.3,0,0.5,0.4,0.5h10.5C96.3,180.6,98.8,179.7,100.7,177.8"/>
	<path d="M129.9,215.9c-4.4-4.1-6.6-9.7-6.6-16.8c0-1.7,0.1-3.1,0.2-4l2.6-20.7c0.6-5.2,2.4-9.9,5.2-13.9s6.5-7.2,10.9-9.4
		c4.4-2.2,9.4-3.4,14.9-3.4c5,0,9.4,0.9,13.1,2.8c3.7,1.9,6.6,4.5,8.6,7.9c2,3.4,3,7.4,3,11.9c0,1.8-0.1,3.1-0.2,4l-2.5,20.7
		c-0.6,5.4-2.4,10.1-5.2,14.2c-2.8,4.1-6.5,7.2-11,9.5c-4.5,2.2-9.5,3.4-15,3.4C140.3,222.1,134.4,220,129.9,215.9 M158,204.1
		c2.3-2.2,3.6-5,4-8.5l2.7-21.4c0.1-0.4,0.1-1,0.1-1.9c0-3-0.9-5.4-2.6-7.2c-1.7-1.8-4-2.7-7-2.7c-3.2,0-6,1.1-8.2,3.3
		c-2.3,2.2-3.6,5-4,8.5l-2.6,21.4c-0.1,0.5-0.1,1.2-0.1,2.1c0,3,0.8,5.4,2.5,7.1c1.7,1.7,4,2.6,6.8,2.6
		C153,207.4,155.8,206.3,158,204.1"/>
	<path d="M221.5,220l-8.5-27.5c-0.1-0.3-0.4-0.4-0.6-0.4h-6.7c-0.4,0-0.5,0.2-0.5,0.5l-3.4,27.1c-0.1,0.3-0.2,0.6-0.5,0.9
		c-0.2,0.2-0.5,0.4-0.9,0.4h-14.5c-0.4,0-0.6-0.1-0.8-0.4c-0.2-0.2-0.3-0.5-0.2-0.9l8.7-69.9c0-0.3,0.1-0.6,0.4-0.9
		c0.3-0.2,0.6-0.4,0.9-0.4h30.3c6.2,0,11,1.7,14.6,5.2c3.6,3.4,5.4,8.1,5.4,14c0,0.7-0.1,1.8-0.2,3.3c-0.6,4.6-2.3,8.6-4.9,12
		c-2.7,3.4-6.1,5.8-10.3,7.3c-0.4,0.1-0.5,0.4-0.3,0.7l9.9,28.4c0.1,0.1,0.1,0.3,0.1,0.5c0,0.6-0.4,0.9-1.3,0.9h-15.2
		C222.2,221,221.7,220.6,221.5,220 M208.7,163.8l-1.8,14.7c-0.1,0.3,0,0.5,0.4,0.5h11.3c2.7,0,5-0.8,6.8-2.5
		c1.8-1.7,2.7-3.8,2.7-6.5c0-2.1-0.7-3.7-2-4.9c-1.4-1.2-3.2-1.8-5.5-1.8h-11.2C208.9,163.2,208.7,163.4,208.7,163.8"/>
	<path d="M308.5,148.9c0.2,0.2,0.3,0.5,0.2,0.9l-1.6,12.3c0,0.3-0.1,0.6-0.4,0.9c-0.3,0.2-0.6,0.4-0.9,0.4H288
		c-0.4,0-0.6,0.2-0.6,0.5l-6.9,55.9c-0.1,0.3-0.2,0.6-0.5,0.9c-0.2,0.2-0.5,0.4-0.9,0.4h-14.5c-0.4,0-0.6-0.1-0.8-0.4
		c-0.2-0.2-0.3-0.5-0.2-0.9l6.9-55.9c0-0.3-0.1-0.5-0.4-0.5h-17.2c-0.4,0-0.6-0.1-0.8-0.4c-0.2-0.2-0.3-0.5-0.2-0.9l1.5-12.3
		c0.1-0.3,0.2-0.6,0.5-0.9c0.2-0.2,0.5-0.4,0.9-0.4h53C308,148.5,308.3,148.7,308.5,148.9"/>
	<path d="M313.7,216.6c-4.5-3.5-6.8-8.2-6.8-14.2c0-0.6,0.1-1.6,0.2-3l0.3-2c0.1-0.3,0.2-0.6,0.5-0.9c0.2-0.2,0.5-0.4,0.9-0.4H323
		c0.3,0,0.6,0.1,0.8,0.4c0.2,0.2,0.3,0.5,0.2,0.9l-0.2,1.2c-0.3,2.3,0.6,4.3,2.7,5.9c2.1,1.7,5,2.5,8.8,2.5c3.2,0,5.6-0.7,7.2-2.2
		c1.6-1.5,2.4-3.1,2.4-4.9c0-1.7-0.7-2.9-2.2-3.9c-1.5-0.9-4.1-2.1-8-3.5l-2.4-0.8c-3.9-1.4-7.3-2.8-10.2-4.3
		c-2.9-1.5-5.3-3.6-7.4-6.2c-2.1-2.6-3.1-5.8-3.1-9.6c0-0.6,0.1-1.4,0.2-2.7c0.6-4.3,2.2-8,4.8-11.2c2.6-3.2,6-5.7,10.1-7.4
		c4.1-1.7,8.7-2.6,13.7-2.6c4.8,0,9.1,0.8,12.9,2.5c3.7,1.7,6.7,4,8.8,7.1c2.1,3.1,3.2,6.6,3.2,10.6c0,0.6-0.1,1.6-0.2,3l-0.2,1.4
		c0,0.3-0.1,0.6-0.4,0.9c-0.3,0.2-0.6,0.4-0.9,0.4h-14.1c-0.4,0-0.6-0.1-0.9-0.4c-0.2-0.2-0.3-0.5-0.3-0.9l0.1-0.7
		c0.3-2.4-0.5-4.6-2.4-6.4c-1.9-1.9-4.5-2.8-8-2.8c-2.9,0-5.1,0.6-6.8,1.9c-1.7,1.3-2.5,3.1-2.5,5.3c0,1.2,0.5,2.3,1.4,3.2
		c0.9,0.9,2.3,1.7,4.1,2.5c1.8,0.8,4.6,1.9,8.4,3.3c4.3,1.5,7.6,2.8,9.9,3.9c2.3,1.1,4.6,2.9,6.6,5.3c2.1,2.4,3.1,5.6,3.1,9.5
		c0,0.6-0.1,1.4-0.2,2.7c-0.8,6.7-3.9,12-9.3,15.9c-5.4,3.9-12.1,5.8-20.2,5.8C324.4,221.8,318.2,220,313.7,216.6"/>
</g>
</svg>

